<svg width="842" height="743" viewBox="0 0 842 743" fill="none" xmlns="http://www.w3.org/2000/svg">
<path d="M719.217 742.185C786.185 742.185 840.474 737.219 840.474 731.092C840.474 724.966 786.185 720 719.217 720C652.248 720 597.959 724.966 597.959 731.092C597.959 737.219 652.248 742.185 719.217 742.185Z" fill="#F2F2F2"/>
<path d="M815.982 702.944H25.7305C11.7097 702.944 0.308105 691.543 0.308105 677.523V202.704C0.308105 192.382 8.62817 184.062 18.9512 184.062H822.453C832.931 184.062 841.405 192.536 841.405 203.012V677.369C841.405 691.543 830.003 702.944 815.982 702.944Z" fill="#F2F2F2"/>
<path d="M50.3825 677.523H791.176C804.735 677.523 815.828 666.431 815.828 652.873V249.847C815.828 236.289 804.735 225.197 791.176 225.197H50.3825C36.8239 225.197 25.7305 236.289 25.7305 249.847V652.719C25.7305 666.431 36.8239 677.523 50.3825 677.523Z" fill="white"/>
<path d="M841.097 201.317H0V188.376C0 174.356 11.4016 162.956 25.5765 162.956H815.52C829.541 162.956 840.943 174.356 841.097 188.376V201.317Z" fill="#694AFF"/>
<path d="M46.3767 188.684C50.0357 188.684 53.0019 185.718 53.0019 182.059C53.0019 178.401 50.0357 175.435 46.3767 175.435C42.7177 175.435 39.7515 178.401 39.7515 182.059C39.7515 185.718 42.7177 188.684 46.3767 188.684Z" fill="white"/>
<path d="M71.491 188.684C75.15 188.684 78.1162 185.718 78.1162 182.059C78.1162 178.401 75.15 175.435 71.491 175.435C67.8319 175.435 64.8657 178.401 64.8657 182.059C64.8657 185.718 67.8319 188.684 71.491 188.684Z" fill="white"/>
<path d="M96.4514 188.684C100.11 188.684 103.077 185.718 103.077 182.059C103.077 178.401 100.11 175.435 96.4514 175.435C92.7924 175.435 89.8262 178.401 89.8262 182.059C89.8262 185.718 92.7924 188.684 96.4514 188.684Z" fill="white"/>
<path d="M125.88 452.901H59.6274C51.6155 452.901 44.9902 446.276 44.9902 438.265V372.018C44.9902 364.007 51.6155 357.382 59.6274 357.382H125.88C133.892 357.382 140.517 364.007 140.517 372.018V438.265C140.517 446.276 133.892 452.901 125.88 452.901Z" fill="white"/>
<path d="M144.547 728.56C175.565 728.56 200.709 725.709 200.709 722.193C200.709 718.677 175.565 715.826 144.547 715.826C113.53 715.826 88.3853 718.677 88.3853 722.193C88.3853 725.709 113.53 728.56 144.547 728.56Z" fill="#F2F2F2"/>
<path d="M134.104 690.867H117.421V720.665H134.104V690.867Z" fill="#2F2E41"/>
<path d="M167.471 690.867H150.788V720.665H167.471V690.867Z" fill="#2F2E41"/>
<path d="M131.303 726.268C138.969 726.268 145.184 723.93 145.184 721.047C145.184 718.163 138.969 715.826 131.303 715.826C123.636 715.826 117.421 718.163 117.421 721.047C117.421 723.93 123.636 726.268 131.303 726.268Z" fill="#2F2E41"/>
<path d="M164.669 725.631C172.335 725.631 178.55 723.294 178.55 720.41C178.55 717.527 172.335 715.189 164.669 715.189C157.002 715.189 150.788 717.527 150.788 720.41C150.788 723.294 157.002 725.631 164.669 725.631Z" fill="#2F2E41"/>
<path d="M201.212 609.625C206.611 595.501 207.365 582.667 202.898 580.959C198.43 579.252 190.432 589.318 185.034 603.442C179.635 617.566 178.88 630.4 183.348 632.107C187.816 633.815 195.814 623.749 201.212 609.625Z" fill="#2F2E41"/>
<path d="M142.382 702.71C172.696 702.71 197.271 678.137 197.271 647.826C197.271 617.514 172.696 592.942 142.382 592.942C112.068 592.942 87.4937 617.514 87.4937 647.826C87.4937 678.137 112.068 702.71 142.382 702.71Z" fill="#1A237E"/>
<path d="M143.783 652.665C154.122 652.665 162.504 644.284 162.504 633.946C162.504 623.607 154.122 615.227 143.783 615.227C133.444 615.227 125.062 623.607 125.062 633.946C125.062 644.284 133.444 652.665 143.783 652.665Z" fill="white"/>
<path d="M143.783 640.185C147.23 640.185 150.023 637.392 150.023 633.946C150.023 630.5 147.23 627.706 143.783 627.706C140.337 627.706 137.543 630.5 137.543 633.946C137.543 637.392 140.337 640.185 143.783 640.185Z" fill="#3F3D56"/>
<path d="M105.147 634.081C107.196 629.76 97.7821 621.005 84.1194 614.526C70.4568 608.047 57.7197 606.297 55.6702 610.618C53.6208 614.939 63.0352 623.694 76.6979 630.173C90.3605 636.652 103.098 638.402 105.147 634.081Z" fill="#2F2E41"/>
<path d="M115.511 667.564C115.511 672.912 129.265 683.481 144.674 683.481C160.084 683.481 174.347 668.328 174.347 662.979C174.347 657.631 159.957 663.998 144.674 663.998C129.392 663.998 115.511 662.215 115.511 667.564Z" fill="white"/>
<path d="M506.086 166.689H489.403V196.487H506.086V166.689Z" fill="#2F2E41"/>
<path d="M546.012 148.989L530.541 155.23L541.689 182.864L557.161 176.623L546.012 148.989Z" fill="#2F2E41"/>
<path d="M503.284 202.09C510.951 202.09 517.165 199.752 517.165 196.869C517.165 193.985 510.951 191.648 503.284 191.648C495.618 191.648 489.403 193.985 489.403 196.869C489.403 199.752 495.618 202.09 503.284 202.09Z" fill="#2F2E41"/>
<path d="M556.438 182.23C563.548 179.362 568.437 174.87 567.359 172.196C566.28 169.521 559.642 169.678 552.532 172.546C545.422 175.414 540.533 179.907 541.612 182.581C542.69 185.255 549.329 185.098 556.438 182.23Z" fill="#2F2E41"/>
<path d="M506.85 173.311C537.164 173.311 561.739 148.738 561.739 118.427C561.739 88.1151 537.164 63.5427 506.85 63.5427C476.536 63.5427 451.961 88.1151 451.961 118.427C451.961 148.738 476.536 173.311 506.85 173.311Z" fill="#1A237E"/>
<path d="M552.616 74.0171C559.187 58.5466 560.578 44.3337 555.723 42.2719C550.867 40.21 541.605 51.0799 535.034 66.5505C528.463 82.021 527.072 96.2338 531.927 98.2957C536.782 100.358 546.045 89.4877 552.616 74.0171Z" fill="#2F2E41"/>
<path d="M463.71 130.001C465.776 125.148 454.912 115.877 439.445 109.295C423.978 102.713 409.766 101.311 407.7 106.165C405.634 111.018 416.498 120.288 431.965 126.87C447.431 133.452 461.644 134.854 463.71 130.001Z" fill="#2F2E41"/>
<path d="M501.629 130.779C511.968 130.779 520.35 122.398 520.35 112.06C520.35 101.721 511.968 93.3405 501.629 93.3405C491.29 93.3405 482.908 101.721 482.908 112.06C482.908 122.398 491.29 130.779 501.629 130.779Z" fill="white"/>
<path d="M501.629 118.299C505.075 118.299 507.869 115.506 507.869 112.06C507.869 108.614 505.075 105.82 501.629 105.82C498.183 105.82 495.389 108.614 495.389 112.06C495.389 115.506 498.183 118.299 501.629 118.299Z" fill="#3F3D56"/>
<path d="M490.676 150.007C492.714 154.974 509.524 159.558 523.661 153.827C537.797 148.097 545.565 128.614 543.527 123.775C541.49 118.936 530.537 130.142 516.401 135.872C502.265 141.603 488.766 145.041 490.676 150.007Z" fill="white"/>
<path d="M138.294 611.802C125.34 614.294 112.882 614.466 100.678 610.318C97.8437 609.429 95.0517 607.82 92.4501 606.041C89.6792 604.072 89.6579 601.361 91.9737 598.787C92.9359 597.759 93.8982 596.732 95.0191 596.075C95.9602 595.407 96.1823 594.697 95.8861 593.596C93.6961 581.724 96.667 571.059 104.598 561.948C105.179 561.26 106.3 560.603 107.199 560.656C107.738 560.687 108.563 562 108.881 562.742C110.414 567.348 111.758 572.124 113.281 576.911C113.746 578.203 114.222 579.315 115.692 578.859C116.972 578.573 117.215 577.503 116.781 575.671C114.824 569.052 112.688 562.423 110.72 555.984C110.107 554.142 110.519 553.262 112.528 552.838C113.258 552.7 113.808 552.552 114.538 552.414C116.716 552.181 118.387 551.375 119.592 549.278C121.591 545.962 126.318 545.336 129.596 547.877C130.633 548.661 131.521 548.894 132.631 548.417C133.922 547.95 135.37 547.855 136.65 547.569C138.479 547.134 139.167 547.716 139.421 549.538C140.288 556.273 141.146 563.189 142.182 570.115C142.32 570.846 142.458 571.577 142.796 571.958C143.314 572.35 144.372 572.773 144.752 572.434C145.323 571.925 145.926 570.877 145.789 570.146C145.482 566.153 144.815 562.14 144.328 558.136C144.212 557.045 144.106 555.775 143.81 554.673C143.588 552.312 144.719 551.475 146.834 552.321C154.575 555.666 160.583 560.896 164.475 568.351C166.104 571.338 167.172 574.652 168.251 577.787C168.547 578.888 169.065 579.28 170.133 579.523C171.561 579.788 173.158 580.243 174.385 580.857C177.198 582.106 178.139 584.51 176.722 587.137C175.115 589.933 173.339 592.539 171.044 594.753C163.589 601.904 154.484 606.428 144.734 609.65C142.513 610.604 140.134 611.187 138.294 611.802ZM131.787 565.892C130.94 561.868 130.094 557.843 129.068 553.808C128.772 552.707 127.947 551.394 127.08 550.801C125.874 549.827 124.415 550.103 123.283 550.94C121.972 551.766 121.528 553.185 121.792 554.827C123.644 563.246 125.495 571.666 127.346 580.085C127.505 580.456 127.664 580.826 127.822 581.197C128.637 582.69 130.223 583.325 131.873 582.88C133.522 582.434 134.495 581.227 134.601 579.426C134.643 578.706 134.505 577.975 134.357 577.425C133.5 573.581 132.644 569.736 131.787 565.892Z" fill="#3468FF"/>
<path d="M490.23 90.8844C478.251 96.4084 466.198 99.5613 453.355 98.4583C450.39 98.2744 447.294 97.3813 444.342 96.278C441.18 95.0302 440.509 92.403 442.141 89.3489C442.829 88.1207 443.517 86.8925 444.448 85.9861C445.201 85.1125 445.247 84.3704 444.695 83.3721C439.724 72.371 440.052 61.3041 445.569 50.5588C445.969 49.751 446.899 48.8446 447.785 48.6804C448.316 48.5818 449.431 49.6589 449.917 50.3026C452.51 54.4074 454.959 58.7225 457.585 63.0046C458.346 64.1474 459.075 65.1129 460.393 64.3181C461.567 63.7336 461.546 62.6367 460.686 60.9619C457.2 55.005 453.537 49.0808 450.084 43.3012C449.047 41.6592 449.236 40.7069 451.085 39.8136C451.761 39.5049 452.259 39.229 452.934 38.9203C454.993 38.1715 456.422 36.9893 457.09 34.6642C458.236 30.9664 462.675 29.2258 466.467 30.9071C467.661 31.4194 468.579 31.4325 469.543 30.7034C470.684 29.9415 472.067 29.5014 473.241 28.9168C474.913 28.0564 475.72 28.457 476.403 30.1646C478.86 36.496 481.349 43.0047 484.016 49.4806C484.324 50.1571 484.633 50.8336 485.053 51.1225C485.65 51.3787 486.778 51.5363 487.066 51.1159C487.499 50.4854 487.833 49.3229 487.524 48.6464C486.269 44.8436 484.66 41.1065 483.228 37.3366C482.854 36.3054 482.446 35.0969 481.895 34.0986C481.113 31.859 482.011 30.7753 484.268 31.0905C492.585 32.4826 499.67 36.121 505.236 42.4261C507.533 44.9349 509.364 47.897 511.163 50.6817C511.714 51.68 512.311 51.9362 513.407 51.9164C514.856 51.831 516.515 51.8901 517.854 52.1922C520.884 52.7306 522.374 54.8389 521.628 57.7288C520.738 60.8288 519.638 63.7844 517.94 66.4839C512.416 75.2128 504.661 81.7875 495.967 87.2522C494.04 88.7103 491.869 89.8466 490.23 90.8844ZM472.911 47.8718C471.125 44.1675 469.339 40.4633 467.375 36.7919C466.824 35.7936 465.708 34.7165 464.724 34.3487C463.32 33.692 461.97 34.3094 461.072 35.3931C459.997 36.5097 459.906 37.994 460.556 39.5243C464.371 47.2546 468.186 54.9849 472.001 62.7152C472.244 63.0371 472.487 63.3589 472.729 63.6807C473.878 64.9351 475.57 65.1715 477.065 64.3439C478.56 63.5163 479.215 62.1108 478.886 60.3375C478.755 59.6281 478.446 58.9517 478.17 58.4525C476.417 54.9256 474.664 51.3987 472.911 47.8718Z" fill="#9D2DFF"/>
<rect x="675.959" y="163" width="7" height="566" fill="#D9D9D9"/>
<rect x="759.959" y="163" width="7" height="566" fill="#D9D9D9"/>
<rect x="676.959" y="226.747" width="87" height="5.79522" fill="#D9D9D9"/>
<rect x="676.959" y="290.495" width="87" height="5.79522" fill="#D9D9D9"/>
<rect x="676.959" y="354.242" width="87" height="5.79522" fill="#D9D9D9"/>
<rect x="676.959" y="417.99" width="87" height="5.79522" fill="#D9D9D9"/>
<rect x="676.959" y="481.737" width="87" height="5.79522" fill="#D9D9D9"/>
<rect x="676.959" y="545.485" width="87" height="5.79522" fill="#D9D9D9"/>
<rect x="676.959" y="609.232" width="87" height="5.79522" fill="#D9D9D9"/>
<rect x="676.959" y="672.979" width="87" height="5.79522" fill="#D9D9D9"/>
<path d="M686.147 521.231C688.196 516.911 678.782 508.155 665.119 501.676C651.457 495.197 638.72 493.447 636.67 497.768C634.621 502.089 644.035 510.844 657.698 517.323C671.361 523.803 684.098 525.552 686.147 521.231Z" fill="#2F2E41"/>
<path d="M746.506 578.059H729.823V607.856H746.506V578.059Z" fill="#2F2E41"/>
<path d="M713.14 578.059H696.457V607.856H713.14V578.059Z" fill="#2F2E41"/>
<path d="M732.625 613.459C740.291 613.459 746.506 611.122 746.506 608.238C746.506 605.355 740.291 603.017 732.625 603.017C724.959 603.017 718.744 605.355 718.744 608.238C718.744 611.122 724.959 613.459 732.625 613.459Z" fill="#2F2E41"/>
<path d="M699.259 612.823C706.925 612.823 713.14 610.485 713.14 607.602C713.14 604.718 706.925 602.381 699.259 602.381C691.592 602.381 685.377 604.718 685.377 607.602C685.377 610.485 691.592 612.823 699.259 612.823Z" fill="#2F2E41"/>
<path d="M723.201 589.901C753.515 589.901 778.09 565.329 778.09 535.017C778.09 504.706 753.515 480.133 723.201 480.133C692.887 480.133 668.312 504.706 668.312 535.017C668.312 565.329 692.887 589.901 723.201 589.901Z" fill="#1A237E"/>
<path d="M733.211 526.283C734.833 516.286 728.044 506.867 718.047 505.245C708.049 503.622 698.629 510.411 697.007 520.408C695.384 530.404 702.173 539.824 712.171 541.446C722.168 543.068 731.588 536.28 733.211 526.283Z" fill="white"/>
<path d="M707.537 523.047C710.913 523.047 713.65 520.311 713.65 516.935C713.65 513.559 710.913 510.823 707.537 510.823C704.161 510.823 701.424 513.559 701.424 516.935C701.424 520.311 704.161 523.047 707.537 523.047Z" fill="#3F3D56"/>
<path d="M799.109 565.428C802.776 562.358 797.878 550.471 788.17 538.878C778.462 527.285 767.619 520.376 763.952 523.446C760.285 526.516 765.183 538.403 774.891 549.996C784.599 561.589 795.442 568.498 799.109 565.428Z" fill="#2F2E41"/>
<path d="M702.443 558.448C702.188 563.796 708.81 574.748 716.579 575.13C724.347 575.512 730.46 563.796 730.715 558.576C730.969 553.227 723.583 556.665 715.815 556.283C708.046 555.901 702.697 553.1 702.443 558.448Z" fill="white"/>
<path d="M728.791 503.692C715.846 501.147 704.232 496.638 694.473 488.218C692.178 486.331 690.193 483.793 688.448 481.169C686.617 478.305 687.613 475.783 690.725 474.265C692.002 473.673 693.279 473.081 694.565 472.892C695.688 472.626 696.159 472.051 696.298 470.919C698.717 459.092 705.469 450.317 716.236 444.843C717.033 444.423 718.318 444.234 719.132 444.62C719.62 444.851 719.893 446.378 719.909 447.184C719.605 452.03 719.06 456.961 718.678 461.97C718.625 463.342 718.65 464.551 720.183 464.68C721.477 464.894 722.103 463.993 722.388 462.132C723.054 455.262 723.558 448.315 724.147 441.608C724.269 439.67 724.981 439.01 727.003 439.369C727.731 439.515 728.296 439.584 729.025 439.729C731.132 440.329 732.983 440.209 734.886 438.716C737.982 436.392 742.599 437.583 744.686 441.167C745.353 442.282 746.089 442.831 747.298 442.805C748.669 442.856 750.048 443.311 751.341 443.525C753.2 443.807 753.619 444.605 753.172 446.389C751.452 452.959 749.655 459.691 748.02 466.501C747.874 467.23 747.727 467.959 747.898 468.44C748.232 468.997 749.053 469.786 749.533 469.614C750.253 469.357 751.205 468.611 751.352 467.882C752.563 464.065 753.45 460.094 754.499 456.2C754.8 455.145 755.178 453.927 755.316 452.795C755.995 450.522 757.358 450.17 759.002 451.748C764.925 457.75 768.534 464.851 769.348 473.221C769.739 476.6 769.487 480.074 769.313 483.384C769.174 484.517 769.508 485.074 770.407 485.7C771.632 486.48 772.942 487.5 773.849 488.529C775.989 490.742 775.96 493.323 773.662 495.228C771.124 497.218 768.501 498.968 765.543 500.16C755.952 503.996 745.815 504.778 735.568 504.111C733.151 504.163 730.727 503.812 728.791 503.692ZM739.965 458.69C740.688 454.642 741.412 450.593 741.973 446.468C742.111 445.336 741.839 443.809 741.257 442.935C740.504 441.58 739.048 441.288 737.685 441.64C736.16 441.915 735.216 443.064 734.846 444.685C733.407 453.185 731.968 461.684 730.528 470.184C730.537 470.587 730.545 470.99 730.553 471.393C730.748 473.083 731.981 474.266 733.677 474.471C735.374 474.677 736.728 473.922 737.501 472.292C737.81 471.64 737.956 470.911 738.026 470.345C738.672 466.46 739.318 462.575 739.965 458.69Z" fill="#D20FFF"/>
</svg>
