<svg width="210" height="124" viewBox="0 0 210 124" fill="none" xmlns="http://www.w3.org/2000/svg">
<path d="M50 115C74.3005 115 94 112.761 94 110C94 107.239 74.3005 105 50 105C25.6995 105 6 107.239 6 110C6 112.761 25.6995 115 50 115Z" fill="#F2F2F2" fill-opacity="0.1"/>
<path d="M45.2413 90.8006H36.0531V107.212H45.2413V90.8006Z" fill="#2F2E41"/>
<path d="M63.6178 90.8007H54.4295V107.212H63.6178V90.8007Z" fill="#2F2E41"/>
<path d="M43.6983 110.298C47.9206 110.298 51.3434 109.01 51.3434 107.422C51.3434 105.834 47.9206 104.547 43.6983 104.547C39.476 104.547 36.0531 105.834 36.0531 107.422C36.0531 109.01 39.476 110.298 43.6983 110.298Z" fill="#2F2E41"/>
<path d="M62.0747 109.947C66.297 109.947 69.7198 108.66 69.7198 107.072C69.7198 105.483 66.297 104.196 62.0747 104.196C57.8524 104.196 54.4295 105.483 54.4295 107.072C54.4295 108.66 57.8524 109.947 62.0747 109.947Z" fill="#2F2E41"/>
<path d="M82.201 46.0563C85.1743 38.2774 85.5899 31.2091 83.1294 30.2688C80.6689 29.3285 76.264 34.8723 73.2907 42.6512C70.3175 50.4301 69.9018 57.4984 72.3624 58.4387C74.8229 59.379 79.2278 53.8352 82.201 46.0563Z" fill="#2F2E41"/>
<path d="M49.8003 97.3229C66.4959 97.3229 80.0303 83.7896 80.0303 67.0955C80.0303 50.4014 66.4959 36.8682 49.8003 36.8682C33.1048 36.8682 19.5704 50.4014 19.5704 67.0955C19.5704 83.7896 33.1048 97.3229 49.8003 97.3229Z" fill="#1A237E"/>
<path d="M50.5719 69.7606C56.2662 69.7606 60.8823 65.1449 60.8823 59.4511C60.8823 53.7572 56.2662 49.1415 50.5719 49.1415C44.8776 49.1415 40.2614 53.7572 40.2614 59.4511C40.2614 65.1449 44.8776 69.7606 50.5719 69.7606Z" fill="white"/>
<path d="M50.5719 62.8876C52.47 62.8876 54.0087 61.349 54.0087 59.4511C54.0087 57.5531 52.47 56.0146 50.5719 56.0146C48.6738 56.0146 47.1351 57.5531 47.1351 59.4511C47.1351 61.349 48.6738 62.8876 50.5719 62.8876Z" fill="#3F3D56"/>
<path d="M29.2931 59.5257C30.4218 57.146 25.2368 52.3241 17.7121 48.7557C10.1874 45.1873 3.17242 44.2237 2.04371 46.6034C0.915 48.9831 6.09998 53.805 13.6247 57.3734C21.1494 60.9418 28.1644 61.9054 29.2931 59.5257Z" fill="#2F2E41"/>
<path d="M35.001 77.9662C35.001 80.9118 42.576 86.7328 51.0628 86.7328C59.5497 86.7328 67.4052 78.387 67.4052 75.4414C67.4052 72.4958 59.4795 76.0025 51.0628 76.0025C42.6462 76.0025 35.001 75.0206 35.001 77.9662Z" fill="white"/>
<path d="M47.5487 47.2554C40.4141 48.6279 33.5531 48.7229 26.8317 46.4381C25.2707 45.9485 23.733 45.0623 22.3002 44.0827C20.7742 42.9982 20.7624 41.505 22.0378 40.0873C22.5678 39.5213 23.0977 38.9554 23.7151 38.5936C24.2334 38.226 24.3557 37.8352 24.1926 37.2286C22.9865 30.6902 24.6226 24.816 28.9905 19.7986C29.3108 19.4193 29.9281 19.0576 30.4232 19.0866C30.7202 19.104 31.1746 19.8272 31.3493 20.2355C32.1941 22.7726 32.9339 25.403 33.7728 28.0393C34.0291 28.7509 34.2913 29.3633 35.1008 29.1122C35.8056 28.9546 35.9395 28.3654 35.7006 27.3564C34.6228 23.7111 33.4461 20.0599 32.3625 16.5138C32.0246 15.4989 32.2517 15.0147 33.3583 14.7812C33.7602 14.7052 34.063 14.6235 34.4649 14.5476C35.6647 14.4189 36.5849 13.9754 37.2488 12.8203C38.3494 10.9943 40.9529 10.6495 42.7585 12.049C43.3293 12.4805 43.8186 12.6087 44.4301 12.346C45.1406 12.0892 45.9386 12.0365 46.6433 11.8789C47.6509 11.6395 48.0295 11.9602 48.1693 12.9634C48.6472 16.673 49.1192 20.4818 49.6903 24.2964C49.7661 24.6989 49.8418 25.1013 50.0282 25.3113C50.3136 25.527 50.896 25.7602 51.1057 25.5735C51.4202 25.2934 51.7521 24.7159 51.6764 24.3134C51.5073 22.1144 51.1402 19.9039 50.8721 17.6991C50.808 17.0983 50.7497 16.3984 50.5866 15.7918C50.4642 14.4911 51.0874 14.0301 52.2523 14.4964C56.5158 16.3386 59.8242 19.2192 61.9678 23.3251C62.8649 24.9697 63.4533 26.7953 64.0475 28.5217C64.2106 29.1283 64.496 29.344 65.0843 29.478C65.8706 29.6237 66.7501 29.8743 67.4257 30.2124C68.975 30.9003 69.4935 32.2242 68.7131 33.671C67.8279 35.2111 66.8496 36.6463 65.5858 37.8657C61.48 41.8039 56.4655 44.2958 51.0956 46.0704C49.8725 46.5957 48.5621 46.9168 47.5487 47.2554ZM43.9649 21.9705C43.4988 19.7541 43.0326 17.5377 42.4675 15.3155C42.3044 14.7089 41.8501 13.9857 41.3724 13.6592C40.7084 13.1228 39.9047 13.2746 39.2815 13.7356C38.5593 14.1907 38.3148 14.9724 38.4605 15.8765C39.4801 20.5134 40.4997 25.1503 41.5193 29.7872C41.6066 29.9914 41.694 30.1955 41.7814 30.3996C42.2299 31.222 43.1036 31.5717 44.0122 31.3265C44.9207 31.0813 45.4565 30.4162 45.5147 29.4246C45.538 29.028 45.4622 28.6255 45.3806 28.3222C44.9087 26.205 44.4368 24.0877 43.9649 21.9705Z" fill="#3468FF"/>
<path d="M158 124C182.301 124 202 121.761 202 119C202 116.239 182.301 114 158 114C133.699 114 114 116.239 114 119C114 121.761 133.699 124 158 124Z" fill="#F2F2F2" fill-opacity="0.1"/>
<path d="M141.054 71.223C142.173 68.8628 137.031 64.0802 129.567 60.5409C122.104 57.0017 115.147 56.0459 114.027 58.4062C112.908 60.7665 118.05 65.549 125.513 69.0882C132.977 72.6275 139.934 73.5833 141.054 71.223Z" fill="#2F2E41"/>
<path d="M174.025 102.265H164.912V118.542H174.025V102.265Z" fill="#2F2E41"/>
<path d="M155.799 102.265H146.686V118.542H155.799V102.265Z" fill="#2F2E41"/>
<path d="M166.443 121.603C170.63 121.603 174.025 120.326 174.025 118.751C174.025 117.176 170.63 115.899 166.443 115.899C162.255 115.899 158.86 117.176 158.86 118.751C158.86 120.326 162.255 121.603 166.443 121.603Z" fill="#2F2E41"/>
<path d="M148.216 121.255C152.404 121.255 155.799 119.978 155.799 118.403C155.799 116.828 152.404 115.551 148.216 115.551C144.028 115.551 140.634 116.828 140.634 118.403C140.634 119.978 144.028 121.255 148.216 121.255Z" fill="#2F2E41"/>
<path d="M161.295 108.734C177.854 108.734 191.278 95.3114 191.278 78.7537C191.278 62.1959 177.854 48.7732 161.295 48.7732C144.736 48.7732 131.312 62.1959 131.312 78.7537C131.312 95.3114 144.736 108.734 161.295 108.734Z" fill="#1A237E"/>
<path d="M166.763 73.9824C167.649 68.5217 163.94 63.3765 158.479 62.4903C153.018 61.6041 147.872 65.3124 146.986 70.7731C146.1 76.2338 149.808 81.379 155.27 82.2652C160.731 83.1515 165.876 79.4431 166.763 73.9824Z" fill="white"/>
<path d="M152.738 72.215C154.582 72.215 156.077 70.7202 156.077 68.8761C156.077 67.0321 154.582 65.5372 152.738 65.5372C150.894 65.5372 149.399 67.0321 149.399 68.8761C149.399 70.7202 150.894 72.215 152.738 72.215Z" fill="#3F3D56"/>
<path d="M202.759 95.3655C204.763 93.6883 202.087 87.1951 196.784 80.8624C191.481 74.5297 185.558 70.7556 183.555 72.4327C181.552 74.1099 184.227 80.6031 189.53 86.9358C194.834 93.2685 200.756 97.0426 202.759 95.3655Z" fill="#2F2E41"/>
<path d="M149.955 91.5528C149.816 94.4743 153.434 100.457 157.677 100.665C161.921 100.874 165.26 94.4743 165.399 91.6223C165.538 88.7008 161.503 90.5789 157.26 90.3703C153.016 90.1616 150.095 88.6313 149.955 91.5528Z" fill="white"/>
<path d="M164.348 61.642C157.277 60.2518 150.933 57.7887 145.602 53.1891C144.348 52.1587 143.264 50.7722 142.31 49.3388C141.31 47.7742 141.855 46.3968 143.554 45.5672C144.252 45.2439 144.95 44.9205 145.652 44.8173C146.265 44.6719 146.523 44.358 146.599 43.7396C147.92 37.2789 151.608 32.4857 157.49 29.4957C157.925 29.266 158.627 29.1629 159.072 29.3736C159.339 29.5 159.487 30.3339 159.496 30.7743C159.33 33.4213 159.033 36.1151 158.824 38.8511C158.795 39.6007 158.808 40.2613 159.646 40.3314C160.353 40.4484 160.695 39.9564 160.85 38.9398C161.215 35.1871 161.49 31.3923 161.812 27.7287C161.878 26.6699 162.267 26.3091 163.371 26.5057C163.769 26.5853 164.078 26.6227 164.476 26.7023C165.627 27.03 166.638 26.9642 167.678 26.1489C169.369 24.879 171.891 25.5297 173.031 27.4878C173.395 28.0968 173.797 28.3965 174.457 28.3824C175.206 28.4103 175.96 28.6585 176.666 28.7755C177.682 28.9299 177.911 29.3656 177.666 30.3401C176.727 33.9288 175.745 37.6066 174.852 41.3266C174.772 41.7248 174.692 42.123 174.785 42.3853C174.968 42.6898 175.417 43.1208 175.679 43.027C176.072 42.8864 176.592 42.4787 176.672 42.0805C177.334 39.9956 177.818 37.8264 178.391 35.6994C178.556 35.1231 178.762 34.4579 178.838 33.8394C179.209 32.5979 179.953 32.4057 180.851 33.2675C184.086 36.5464 186.058 40.4251 186.503 44.9974C186.716 46.8432 186.579 48.7406 186.483 50.549C186.408 51.1674 186.59 51.4719 187.081 51.8138C187.75 52.24 188.465 52.7974 188.961 53.3595C190.13 54.5679 190.115 55.9781 188.859 57.0184C187.473 58.1055 186.04 59.0615 184.424 59.7129C179.185 61.808 173.647 62.2353 168.05 61.8709C166.73 61.8992 165.406 61.7074 164.348 61.642ZM170.452 37.0594C170.847 34.8481 171.242 32.6368 171.549 30.3833C171.624 29.7649 171.475 28.931 171.158 28.4532C170.746 27.7131 169.951 27.5539 169.207 27.7461C168.373 27.8962 167.858 28.5241 167.656 29.4095C166.87 34.0524 166.083 38.6952 165.297 43.3381C165.302 43.5582 165.306 43.7784 165.311 43.9986C165.417 44.9215 166.091 45.5679 167.017 45.6802C167.944 45.7925 168.684 45.3801 169.106 44.4899C169.275 44.1338 169.355 43.7356 169.393 43.4263C169.746 41.304 170.099 39.1817 170.452 37.0594Z" fill="#D20FFF"/>
</svg>
