<svg width="40" height="39" viewBox="0 0 40 39" fill="none" xmlns="http://www.w3.org/2000/svg">
<path d="M20.1948 38.4119C30.8182 38.4119 39.4301 29.8141 39.4301 19.2082C39.4301 8.60229 30.8182 0.0045166 20.1948 0.0045166C9.57142 0.0045166 0.959473 8.60229 0.959473 19.2082C0.959473 29.8141 9.57142 38.4119 20.1948 38.4119Z" fill="#1DA1F2"/>
<path d="M16.2608 28.9053C24.269 28.9053 28.6462 22.2788 28.6462 16.5359C28.6462 16.3497 28.6419 16.1591 28.6332 15.9729C29.4835 15.3579 30.221 14.5956 30.8066 13.7208C30.0257 14.0672 29.1885 14.3011 28.3078 14.4051C29.2058 13.868 29.8956 13.0148 30.2209 12.0013C29.3663 12.5081 28.4336 12.8632 27.4576 13.0581C26.6637 12.2136 25.5314 11.6852 24.282 11.6852C21.8787 11.6852 19.9309 13.6341 19.9309 16.0335C19.9309 16.3757 19.9699 16.7048 20.0437 17.0253C16.4257 16.8434 13.2198 15.1153 11.0724 12.4821C10.6863 13.1447 10.4824 13.8983 10.4824 14.6692C10.4824 16.1764 11.2502 17.5104 12.4215 18.29C11.7318 18.2683 11.055 18.0821 10.452 17.7443C10.452 17.7616 10.452 17.7789 10.452 17.8006C10.452 19.9054 11.953 21.6638 13.9442 22.0623C13.5712 22.1619 13.1851 22.2139 12.7946 22.2139C12.5126 22.2139 12.2437 22.1879 11.9747 22.1359C12.53 23.864 14.1351 25.12 16.0396 25.1546C14.5516 26.3196 12.6732 27.0169 10.6342 27.0169C10.2872 27.0169 9.94013 26.9953 9.59741 26.9563C11.5149 28.1863 13.8011 28.9053 16.2608 28.9053Z" fill="white"/>
</svg>
