<svg width="39" height="39" viewBox="0 0 39 39" fill="none" xmlns="http://www.w3.org/2000/svg">
<path d="M19.4596 38.4247C30.088 38.4247 38.7036 29.8233 38.7036 19.2123C38.7036 8.60137 30.088 0 19.4596 0C8.83113 0 0.215576 8.60137 0.215576 19.2123C0.215576 29.8233 8.82679 38.4247 19.4596 38.4247Z" fill="#34AADF"/>
<path d="M8.21921 19.0434C8.21921 19.0434 17.8412 15.1021 21.1816 13.7119C22.4613 13.1575 26.7995 11.3775 26.7995 11.3775C26.7995 11.3775 28.8037 10.6022 28.6345 12.4862C28.5781 13.2658 28.1356 15.9857 27.6888 18.9264C27.0207 23.0928 26.2962 27.6447 26.2962 27.6447C26.2962 27.6447 26.1834 28.9224 25.2377 29.1433C24.292 29.3641 22.7346 28.368 22.457 28.1428C22.2357 27.9782 18.2837 25.4792 16.8391 24.2536C16.4487 23.9201 16.0062 23.2531 16.8955 22.4778C18.8997 20.6458 21.29 18.3677 22.7346 16.9255C23.4027 16.2585 24.0708 14.7037 21.29 16.592C17.3423 19.3119 13.4467 21.8672 13.4467 21.8672C13.4467 21.8672 12.5573 22.4215 10.8872 21.9235C9.21698 21.4254 7.27349 20.7584 7.27349 20.7584C7.27349 20.7584 5.94168 19.9312 8.21921 19.0434Z" fill="white"/>
</svg>
