<svg width="39" height="39" viewBox="0 0 39 39" fill="none" xmlns="http://www.w3.org/2000/svg">
<path d="M19.6047 38.4117C30.2281 38.4117 38.84 29.814 38.84 19.2081C38.84 8.60217 30.2281 0.00439453 19.6047 0.00439453C8.98131 0.00439453 0.369385 8.60217 0.369385 19.2081C0.369385 29.814 8.98131 38.4117 19.6047 38.4117Z" fill="#7289DA"/>
<path d="M23.2445 9.71876L22.9235 10.0826C26.8148 11.2693 28.6238 12.9843 28.6238 12.9843C26.2422 11.6807 23.9083 11.044 21.7349 10.7928C20.0864 10.6109 18.5073 10.6543 17.1104 10.8362C16.9716 10.8362 16.8588 10.8578 16.72 10.8795C15.9174 10.9488 13.9739 11.2433 11.5229 12.3174C10.6769 12.7072 10.1737 12.98 10.1737 12.98C10.1737 12.98 12.0738 11.174 16.195 9.98728L15.9651 9.71443C15.9651 9.71443 12.8287 9.64513 9.53602 12.1138C9.53602 12.1138 6.23901 18.0776 6.23901 25.4316C6.23901 25.4316 8.16082 28.7449 13.2191 28.9051C13.2191 28.9051 14.065 27.8787 14.7504 27.0081C11.8439 26.1419 10.7463 24.3142 10.7463 24.3142C10.7463 24.3142 10.9763 24.4745 11.3884 24.704C11.4101 24.7257 11.4318 24.7473 11.4795 24.7733C11.5489 24.8166 11.6183 24.8426 11.6877 24.8859C12.2604 25.2064 12.833 25.4576 13.3579 25.6612C14.295 26.025 15.4185 26.3931 16.72 26.6443C18.4379 26.9648 20.4508 27.0774 22.6459 26.666C23.7217 26.4841 24.8193 26.1636 25.9645 25.6828C26.7671 25.384 27.6607 24.9509 28.5978 24.3359C28.5978 24.3359 27.4525 26.2112 24.4549 27.0558C25.1403 27.922 25.9645 28.9051 25.9645 28.9051C31.0228 28.7449 32.9663 25.4316 32.9663 25.4316C32.9663 18.0776 29.6693 12.1138 29.6693 12.1138C26.381 9.6538 23.2445 9.71876 23.2445 9.71876ZM15.3274 23.3138C14.0477 23.3138 12.9935 22.1704 12.9935 20.7758C12.9935 19.3812 14.0216 18.2378 15.3274 18.2378C16.6332 18.2378 17.683 19.3812 17.6613 20.7758C17.6657 22.1704 16.6332 23.3138 15.3274 23.3138ZM23.6827 23.3138C22.4029 23.3138 21.3488 22.1704 21.3488 20.7758C21.3488 19.3812 22.3769 18.2378 23.6827 18.2378C24.9885 18.2378 26.0166 19.3812 26.0166 20.7758C26.0166 22.1704 24.9841 23.3138 23.6827 23.3138Z" fill="white"/>
</svg>
