<svg width="39" height="39" viewBox="0 0 39 39" fill="none" xmlns="http://www.w3.org/2000/svg">
<path d="M19.6858 38.4117C30.3092 38.4117 38.9211 29.814 38.9211 19.2081C38.9211 8.60217 30.3092 0.00439453 19.6858 0.00439453C9.0624 0.00439453 0.450439 8.60217 0.450439 19.2081C0.450439 29.814 9.0624 38.4117 19.6858 38.4117Z" fill="#0077B5"/>
<path d="M16.9595 16.3667C18.1647 16.3667 19.3422 16.3667 20.5889 16.3667C20.5889 16.8226 20.5889 17.2656 20.5889 17.8127C20.7413 17.7215 20.8244 17.6955 20.866 17.6433C22.3482 15.9628 24.911 15.5069 26.9335 16.5751C28.0556 17.1744 28.5543 18.1514 28.7621 19.2848C28.8729 19.884 28.9422 20.4963 28.9422 21.0956C28.9699 23.3753 28.956 25.6551 28.956 27.987C27.6816 27.987 26.4348 27.987 25.1049 27.987C25.1049 27.6092 25.1049 27.2444 25.1049 26.8797C25.0911 25.0168 25.1188 23.1408 25.0495 21.2779C25.008 19.9752 24.3707 19.3239 23.2764 19.2587C21.9049 19.1936 21.0876 19.7798 20.8798 21.0825C20.769 21.7469 20.769 22.4243 20.769 23.0887C20.7551 24.7171 20.769 26.3325 20.769 28C19.4668 28 18.2339 28 16.9595 28C16.9595 24.1179 16.9595 20.2749 16.9595 16.3667Z" fill="white"/>
<path d="M14.9595 28C13.6115 28 12.3075 28 10.9595 28C10.9595 23.9955 10.9595 20.0179 10.9595 16C12.2928 16 13.5968 16 14.9595 16C14.9595 19.9776 14.9595 23.9552 14.9595 28Z" fill="white"/>
<path d="M12.9595 14C11.8484 14 10.9595 13.1084 10.9595 11.9938C10.9595 10.8793 11.8484 10 12.9595 10C14.0706 10 14.9595 10.8916 14.9595 11.9938C14.9595 13.1084 14.0582 14 12.9595 14Z" fill="white"/>
</svg>
